<svg width="723" height="681" viewBox="0 0 723 681" fill="none" xmlns="http://www.w3.org/2000/svg">
<path d="M696.1 519.161C695.335 519.893 694.603 519.127 694.603 519.127C694.603 519.127 694.636 517.63 694.669 516.133C695.401 516.898 696.899 516.931 696.899 516.931C696.866 518.428 696.1 519.161 696.1 519.161Z" fill="#E0EAFC"/>
<path d="M686.202 357.135C690.028 353.474 696.75 354.372 699.646 358.93C703.307 362.757 702.409 369.479 697.85 372.374C694.024 376.035 687.302 375.138 683.641 371.311C682.243 366.786 682.376 360.796 686.202 357.135Z" fill="#E0EAFC"/>
<path d="M640.615 386.09C638.452 382.296 638.551 377.804 641.612 374.875C644.674 371.947 649.898 372.811 652.827 375.872C655.755 378.933 654.891 384.158 651.83 387.087C648.769 390.015 643.544 389.151 640.615 386.09Z" fill="#E0EAFC"/>
<path d="M605.244 393.549C607.44 395.845 606.609 399.572 604.313 401.768C602.017 403.965 598.29 403.133 596.094 400.837C593.897 398.542 594.729 394.814 597.024 392.618C599.32 390.421 603.813 390.521 605.244 393.549Z" fill="#E0EAFC"/>
<path d="M669.259 310.317C673.851 305.924 680.573 306.822 684.966 311.414C689.359 316.006 687.696 323.46 683.869 327.121C678.546 330.748 672.556 330.616 668.928 325.292C663.77 321.432 664.667 314.71 669.259 310.317Z" fill="#E0EAFC"/>
<path d="M553.066 415.618C552.334 414.853 552.4 411.858 553.166 411.125C553.931 410.393 555.428 410.426 558.423 410.493C557.625 412.722 557.592 414.22 556.826 414.952C556.028 417.182 553.798 416.383 553.066 415.618Z" fill="#E0EAFC"/>
<path d="M619.823 445.56C618.293 447.024 616.063 446.226 614.599 444.695C613.134 443.164 613.933 440.935 615.463 439.47C616.994 438.006 619.224 438.805 620.688 440.335C621.387 442.598 621.354 444.095 619.823 445.56Z" fill="#E0EAFC"/>
<path d="M682.088 475.402C680.558 476.866 678.328 476.068 676.864 474.537C675.399 473.007 676.198 470.777 677.728 469.313C679.259 467.848 681.488 468.647 682.953 470.177C682.92 471.675 683.619 473.938 682.088 475.402Z" fill="#E0EAFC"/>
<path d="M632.34 489.283C631.608 488.518 632.373 487.786 631.641 487.021C633.138 487.054 633.87 487.819 633.87 487.819C633.87 487.819 633.837 489.317 633.072 490.049C634.569 490.082 633.072 490.049 632.34 489.283Z" fill="#E0EAFC"/>
<path d="M703.143 403.955C706.204 401.026 711.428 401.891 714.357 404.952C717.286 408.013 716.421 413.238 713.36 416.166C710.299 419.095 704.309 418.962 702.145 415.169C699.217 412.108 700.081 406.883 703.143 403.955Z" fill="#E0EAFC"/>
<path d="M572.305 460.239C570.808 460.206 570.076 459.44 570.076 459.44C569.343 458.675 570.109 457.943 570.874 457.211L572.372 457.244C572.338 458.741 572.338 458.741 572.305 460.239Z" fill="#E0EAFC"/>
<path d="M622.874 341.502C619.214 337.676 620.843 331.719 623.905 328.791C627.731 325.13 634.453 326.028 637.349 330.586C641.01 334.413 640.112 341.135 635.553 344.03C631.76 346.194 626.535 345.329 622.874 341.502Z" fill="#E0EAFC"/>
<path d="M527.533 316.921C530.461 319.982 529.63 323.709 526.569 326.638C523.508 329.567 519.78 328.735 516.852 325.674C514.655 323.378 514.755 318.886 517.816 315.957C520.844 314.526 525.336 314.625 527.533 316.921Z" fill="#E0EAFC"/>
<path d="M563.138 298.979C566.964 295.318 572.921 296.948 575.85 300.01C579.511 303.836 577.881 309.793 574.819 312.721C570.993 316.382 565.768 315.518 562.108 311.691C558.447 307.865 558.579 301.875 563.138 298.979Z" fill="#E0EAFC"/>
<path d="M479.05 341.318C477.52 342.782 475.29 341.984 473.826 340.453C472.361 338.923 473.16 336.693 474.69 335.229C476.221 333.764 478.45 334.563 479.915 336.093C480.647 336.859 480.581 339.854 479.05 341.318Z" fill="#E0EAFC"/>
<path d="M546.196 252.161C550.022 248.5 556.744 249.398 560.405 253.225C564.066 257.051 563.168 263.773 559.341 267.434C555.515 271.095 548.793 270.197 545.132 266.371C540.739 261.779 541.604 256.554 546.196 252.161Z" fill="#E0EAFC"/>
<path d="M432.3 355.264L430.803 355.231C430.07 354.466 430.07 354.466 430.103 352.968C430.103 352.968 430.869 352.236 430.137 351.471C430.869 352.236 431.634 351.504 432.366 352.269C432.333 353.767 431.568 354.499 432.3 355.264Z" fill="#E0EAFC"/>
<path d="M590.785 234.419C596.109 230.792 602.831 231.689 607.224 236.281C611.617 240.873 609.954 248.327 605.362 252.72C600.77 257.113 592.551 256.182 588.923 250.858C584.53 246.267 586.193 238.812 590.785 234.419Z" fill="#E0EAFC"/>
<path d="M580.081 345.798C583.142 342.869 588.366 343.734 590.53 347.527C593.458 350.588 592.594 355.813 590.298 358.009C587.237 360.938 582.012 360.073 579.083 357.012C575.423 353.186 576.287 347.961 580.081 345.798Z" fill="#E0EAFC"/>
<path d="M508.544 430.362L508.577 428.865C509.342 428.133 510.074 428.898 510.84 428.166C510.807 429.663 510.041 430.395 510.041 430.395C509.276 431.127 508.544 430.362 508.544 430.362Z" fill="#E0EAFC"/>
<path d="M542.048 371.925C539.752 374.121 536.025 373.29 535.326 371.027C533.129 368.731 534.693 365.769 536.224 364.305C538.52 362.109 541.481 363.672 542.946 365.203C544.41 366.734 544.344 369.728 542.048 371.925Z" fill="#E0EAFC"/>
<path d="M493.799 385.839C493.033 386.571 492.301 385.806 490.038 386.505C490.837 384.275 490.87 382.778 490.87 382.778C491.635 382.046 493.133 382.079 493.865 382.844C496.095 383.643 495.329 384.375 493.799 385.839Z" fill="#E0EAFC"/>
<path d="M607.726 281.24C612.318 276.847 619.04 277.744 622.668 283.068C627.061 287.66 626.163 294.382 620.839 298.01C617.013 301.671 609.525 301.505 605.898 296.181C602.237 292.355 602.403 284.867 607.726 281.24Z" fill="#E0EAFC"/>
<path d="M743.806 55.7741C735.421 62.3305 724.972 60.6012 718.383 53.7136C712.558 46.0938 712.823 34.1141 720.443 28.2899C728.063 22.4656 740.043 22.7306 745.867 30.3504C752.456 37.238 751.459 48.4524 743.806 55.7741Z" fill="#E0EAFC"/>
<path d="M501.606 269.904C504.667 266.975 509.891 267.84 512.82 270.901C515.749 273.962 514.884 279.187 511.823 282.116C508.762 285.044 503.537 284.18 500.608 281.119C496.948 277.292 497.812 272.068 501.606 269.904Z" fill="#E0EAFC"/>
<path d="M257.96 7.57284C256.43 9.03718 254.2 8.23878 252.736 6.7082C251.271 5.17761 252.07 2.94795 253.6 1.48361C255.131 0.0192729 257.361 0.817704 258.825 2.34829C259.557 3.11358 259.491 6.1085 257.96 7.57284Z" fill="#E0EAFC"/>
<path d="M211.207 21.521C210.442 22.2531 209.709 21.4878 209.709 21.4878C209.709 21.4878 209.742 19.9904 209.776 18.4929C210.508 19.2582 212.005 19.2913 212.005 19.2913C211.24 20.0235 211.207 21.521 211.207 21.521Z" fill="#E0EAFC"/>
<path d="M357.524 10.5242C361.35 6.8634 367.307 8.49334 370.968 12.3198C374.629 16.1463 372.999 22.103 369.172 25.7638C365.346 29.4247 359.389 27.7947 355.728 23.9683C352.833 19.4097 352.965 13.4198 357.524 10.5242Z" fill="#E0EAFC"/>
<path d="M322.652 29.2306C325.58 32.2917 325.481 36.7841 321.688 38.9475C318.626 41.8762 314.899 41.0447 311.971 37.9835C309.042 34.9223 309.874 31.1952 312.935 28.2665C315.231 26.07 319.723 26.1694 322.652 29.2306Z" fill="#E0EAFC"/>
<path d="M226.686 66.8092C225.921 67.5413 225.188 66.7761 224.423 67.5082C224.456 66.0108 225.222 65.2786 225.222 65.2786C225.222 65.2786 226.719 65.3117 227.451 66.077L226.686 66.8092Z" fill="#E0EAFC"/>
<path d="M273.437 52.8619C271.906 54.3262 269.677 53.5278 268.212 51.9972C266.748 50.4666 267.546 48.237 269.077 46.7727C270.608 45.3083 272.837 46.1067 274.301 47.6373C275.766 49.1679 275.7 52.1628 273.437 52.8619Z" fill="#E0EAFC"/>
<path d="M465.236 288.575C467.433 290.871 466.601 294.598 464.305 296.794C462.01 298.991 458.282 298.159 456.086 295.863C453.889 293.567 454.721 289.84 457.017 287.644C460.045 286.213 463.04 286.279 465.236 288.575Z" fill="#E0EAFC"/>
<path d="M433.348 206.218C430.287 209.147 425.063 208.282 422.866 205.986C419.937 202.925 420.802 197.7 423.863 194.772C426.924 191.843 432.149 192.708 434.345 195.004C436.509 198.797 436.409 203.289 433.348 206.218Z" fill="#E0EAFC"/>
<path d="M400.577 265.42C399.047 266.885 396.817 266.086 395.353 264.556C393.888 263.025 394.687 260.796 396.217 259.331C397.748 257.867 399.978 258.665 401.442 260.196C402.906 261.727 402.84 264.721 400.577 265.42Z" fill="#E0EAFC"/>
<path d="M468.453 177.03C472.28 173.37 479.002 174.267 481.897 178.826C485.558 182.652 484.66 189.374 480.834 193.035C477.007 196.696 470.285 195.798 467.39 191.24C462.997 186.648 463.895 179.926 468.453 177.03Z" fill="#E0EAFC"/>
<path d="M495.334 113.202C499.925 108.809 508.145 109.74 512.538 114.332C516.931 118.924 516 127.143 511.408 131.536C506.817 135.929 498.597 134.998 494.204 130.407C489.811 125.815 490.742 117.595 495.334 113.202Z" fill="#E0EAFC"/>
<path d="M385.83 220.897C384.3 222.362 381.305 222.295 379.108 219.999C377.644 218.469 376.978 214.709 380.006 213.277C381.537 211.813 384.532 211.879 386.728 214.175C388.192 215.706 388.126 218.701 385.83 220.897Z" fill="#E0EAFC"/>
<path d="M289.647 98.9151C288.117 100.379 286.619 100.346 285.155 98.8158C283.69 97.2852 283.724 95.7877 285.254 94.3234C286.785 92.859 289.014 93.6575 289.747 94.4228C291.976 95.2212 291.178 97.4508 289.647 98.9151Z" fill="#E0EAFC"/>
<path d="M451.51 130.212C455.336 126.551 462.058 127.449 465.719 131.275C469.38 135.101 469.214 142.589 463.89 146.216C459.332 149.112 453.342 148.979 448.949 144.388C446.786 140.594 446.918 134.605 451.51 130.212Z" fill="#E0EAFC"/>
<path d="M416.82 309.977C415.323 309.944 413.825 309.911 413.093 309.145C412.361 308.38 411.662 306.117 413.16 306.15C413.925 305.418 415.422 305.451 416.154 306.217C416.887 306.982 416.854 308.479 416.82 309.977Z" fill="#E0EAFC"/>
<path d="M529.252 205.342C533.078 201.682 540.566 201.847 544.194 207.171C548.587 211.763 547.689 218.485 543.097 222.878C538.505 227.271 531.783 226.373 528.156 221.049C523.763 216.457 524.66 209.735 529.252 205.342Z" fill="#E0EAFC"/>
<path d="M512.278 160.022C516.869 155.629 524.324 157.292 528.717 161.884C533.11 166.475 532.212 173.197 527.62 177.59C523.028 181.983 514.809 181.052 511.913 176.494C506.788 171.137 507.719 162.917 512.278 160.022Z" fill="#E0EAFC"/>
<path d="M449.791 241.79C451.988 244.086 451.889 248.578 448.827 251.507C445.766 254.435 442.039 253.604 439.11 250.543C436.182 247.481 437.013 243.754 440.074 240.826C442.37 238.629 447.595 239.494 449.791 241.79Z" fill="#E0EAFC"/>
<path d="M484.662 223.085C488.489 219.425 493.713 220.289 497.374 224.116C501.035 227.942 500.17 233.167 496.344 236.827C492.517 240.488 487.293 239.624 483.632 235.797C479.971 231.971 480.836 226.746 484.662 223.085Z" fill="#E0EAFC"/>
<path d="M337.615 233.315C336.85 234.048 336.118 233.282 336.118 233.282C336.118 233.282 336.151 231.785 336.184 230.287C336.916 231.053 338.413 231.086 338.413 231.086C338.38 232.583 338.347 234.081 337.615 233.315Z" fill="#E0EAFC"/>
<path d="M418.324 38.8357C422.916 34.4427 430.37 36.1058 434.031 39.9322C437.658 45.2561 436.761 51.9781 432.934 55.639C427.61 59.2667 420.888 58.3689 417.993 53.8103C412.834 49.9507 413 42.4634 418.324 38.8357Z" fill="#E0EAFC"/>
<path d="M406.155 148.687C409.216 145.758 415.206 145.891 417.369 149.684C420.298 152.745 420.165 158.735 415.607 161.63C412.545 164.559 407.321 163.694 403.66 159.868C402.229 156.84 403.093 151.615 406.155 148.687Z" fill="#E0EAFC"/>
<path d="M373.734 56.5792C377.56 52.9183 384.282 53.8161 386.446 57.6095C390.107 61.4359 388.477 67.3927 385.416 70.3213C381.589 73.9822 374.867 73.0844 372.704 69.2911C369.043 65.4646 369.908 60.24 373.734 56.5792Z" fill="#E0EAFC"/>
<path d="M337.898 85.0003C334.837 87.9289 331.11 87.0974 328.181 84.0362C325.253 80.9751 326.849 76.5158 329.145 74.3193C331.441 72.1228 336.666 72.9874 338.862 75.2833C341.791 78.3444 340.194 82.8038 337.898 85.0003Z" fill="#E0EAFC"/>
<path d="M402.112 -7.21703C406.704 -11.61 414.158 -9.94694 418.551 -5.35519C422.179 -0.0312726 422.046 5.95857 417.455 10.3516C412.863 14.7446 406.141 13.8468 401.748 9.25509C395.857 4.63022 396.788 -3.58931 402.112 -7.21703Z" fill="#E0EAFC"/>
<path d="M305.891 143.471C305.125 144.203 302.13 144.137 301.398 143.372C300.666 142.607 299.967 140.344 302.23 139.645C302.995 138.913 305.225 139.711 306.722 139.744C306.689 141.242 306.656 142.739 305.891 143.471Z" fill="#E0EAFC"/>
<path d="M434.534 84.891C439.126 80.498 445.848 81.3958 450.241 85.9875C454.634 90.5793 452.971 98.0335 448.412 100.929C444.586 104.59 437.098 104.424 433.471 99.1004C429.045 96.0061 429.942 89.284 434.534 84.891Z" fill="#E0EAFC"/>
<path d="M369.785 167.358C371.981 169.654 371.15 173.381 369.619 174.845C367.323 177.042 363.596 176.21 361.4 173.914C359.203 171.618 360.035 167.891 362.33 165.695C364.626 163.498 368.32 165.827 369.785 167.358Z" fill="#E0EAFC"/>
<path d="M355.072 121.338C357.268 123.634 357.169 128.126 354.141 129.557C351.845 131.754 347.353 131.655 345.156 129.359C342.96 127.063 343.059 122.57 345.355 120.374C347.651 118.177 352.143 118.277 355.072 121.338Z" fill="#E0EAFC"/>
<path d="M389.945 102.632C393.771 98.9709 398.996 99.8356 402.657 103.662C406.318 107.489 405.453 112.713 401.626 116.374C397.8 120.035 391.843 118.405 388.915 115.344C385.254 111.517 386.118 106.293 389.945 102.632Z" fill="#E0EAFC"/>
<path d="M321.369 188.759C320.604 189.492 319.106 189.458 318.374 188.693C317.642 187.928 318.407 187.196 318.44 185.698C319.938 185.731 321.435 185.764 322.168 186.53C322.168 186.53 322.134 188.027 321.369 188.759Z" fill="#E0EAFC"/>
<path d="M573.808 189.099C579.165 183.974 587.385 184.905 591.012 190.229C595.405 194.821 594.474 203.04 589.117 208.165C583.793 211.793 576.306 211.627 572.678 206.303C568.318 200.214 568.484 192.727 573.808 189.099Z" fill="#E0EAFC"/>
<path d="M601.455 124.54C608.309 119.448 616.529 120.379 620.888 126.468C625.248 132.557 625.05 141.542 619.693 146.667C613.603 151.027 604.619 150.828 598.761 144.706C594.401 138.617 596.098 129.665 601.455 124.54Z" fill="#E0EAFC"/>
<path d="M556.866 142.28C562.223 137.155 570.442 138.086 575.567 143.443C580.692 148.8 579.762 157.019 573.672 161.379C567.583 165.739 560.096 165.574 555.736 159.484C551.343 154.893 552.274 146.673 556.866 142.28Z" fill="#E0EAFC"/>
<path d="M619.163 170.627C625.252 166.267 633.471 167.198 638.597 172.555C642.957 178.644 642.026 186.864 636.669 191.989C630.579 196.349 622.36 195.418 617.235 190.061C611.377 183.939 612.308 175.719 619.163 170.627Z" fill="#E0EAFC"/>
<path d="M680.695 199.704C686.784 195.344 695.769 195.543 700.128 201.632C705.254 206.989 704.29 216.706 698.2 221.066C692.843 226.191 683.126 225.227 678.767 219.138C673.641 213.781 673.84 204.796 680.695 199.704Z" fill="#E0EAFC"/>
<path d="M635.374 216.679C641.463 212.319 648.951 212.485 653.31 218.574C658.436 223.931 657.505 232.15 651.416 236.51C645.326 240.87 637.839 240.705 633.479 234.615C628.354 229.258 630.017 221.804 635.374 216.679Z" fill="#E0EAFC"/>
<path d="M523.712 49.4077C529.802 45.0478 538.786 45.2465 543.146 51.3357C548.271 56.6928 548.073 65.6775 541.218 70.7696C535.861 75.8947 526.876 75.696 521.019 69.5737C516.659 63.4845 518.355 54.5328 523.712 49.4077Z" fill="#E0EAFC"/>
<path d="M506.736 4.08754C512.093 -1.03765 521.81 -0.0736716 526.935 5.28337C531.295 11.3726 531.096 20.3574 525.007 24.7173C518.885 30.5746 509.933 28.8784 504.808 23.5214C500.448 17.4322 501.379 9.21272 506.736 4.08754Z" fill="#E0EAFC"/>
<path d="M462.914 21.0954C468.271 15.9702 476.49 16.9011 480.85 22.9903C485.975 28.3474 485.045 36.5668 478.955 40.9267C473.598 46.0519 465.379 45.121 461.019 39.0318C456.626 34.44 457.557 26.2206 462.914 21.0954Z" fill="#E0EAFC"/>
<path d="M652.316 263.497C656.908 259.104 665.127 260.035 668.755 265.359C672.383 270.683 672.217 278.17 666.893 281.798C661.569 285.426 654.082 285.26 650.454 279.936C646.061 275.345 646.227 267.857 652.316 263.497Z" fill="#E0EAFC"/>
<path d="M479.123 67.1496C484.447 63.5218 491.934 63.6874 497.06 69.0445C500.687 74.3684 500.522 81.8557 495.165 86.9809C489.076 91.3407 482.354 90.443 477.228 85.086C473.601 79.762 474.532 71.5426 479.123 67.1496Z" fill="#E0EAFC"/>
<path d="M540.654 96.2279C546.011 91.1027 554.231 92.0336 559.356 97.3906C564.481 102.748 563.517 112.465 557.428 116.825C551.339 121.184 543.119 120.254 537.994 114.896C534.366 109.573 535.297 101.353 540.654 96.2279Z" fill="#E0EAFC"/>
<path d="M719.887 459.758C717.691 457.462 717.79 452.97 720.818 451.539C723.114 449.342 727.606 449.442 729.803 451.737C731.999 454.033 731.9 458.526 728.839 461.454C726.543 463.651 722.816 462.819 719.887 459.758Z" fill="#E0EAFC"/>
<path d="M446.702 -24.9573C452.059 -30.0825 460.278 -29.1517 464.638 -23.0625C469.763 -17.7054 468.833 -9.48591 463.476 -4.36073C458.119 0.764456 449.899 -0.166465 445.539 -6.25567C440.414 -11.6127 441.345 -19.8322 446.702 -24.9573Z" fill="#E0EAFC"/>
<path d="M713.081 293.307C717.673 288.914 725.893 289.845 730.286 294.437C734.679 299.029 733.748 307.248 729.156 311.641C724.564 316.034 716.345 315.103 711.952 310.511C708.324 305.188 708.49 297.7 713.081 293.307Z" fill="#E0EAFC"/>
<path d="M668.273 422.658C670.469 424.954 669.638 428.681 667.342 430.878C665.046 433.074 660.554 432.975 658.357 430.679C656.161 428.383 656.26 423.891 659.321 420.962C662.349 419.531 666.076 420.362 668.273 422.658Z" fill="#E0EAFC"/>
<path d="M730.791 339.393C735.383 335 742.105 335.898 746.498 340.49C750.891 345.082 749.993 351.804 745.401 356.197C740.809 360.59 734.087 359.692 729.694 355.1C725.301 350.508 726.199 343.786 730.791 339.393Z" fill="#E0EAFC"/>
<path d="M696.872 247.255C702.229 242.13 711.18 243.826 715.573 248.418C719.933 254.507 719.002 262.727 712.913 267.086C706.824 271.446 699.337 271.281 694.977 265.192C690.617 259.102 691.548 250.883 696.872 247.255Z" fill="#E0EAFC"/>
<path d="M723.289 204.391C718.197 197.537 719.128 189.317 725.25 183.46C732.104 178.368 741.089 178.567 746.181 185.421C751.273 192.276 750.309 201.992 744.22 206.352C738.098 212.21 728.381 211.246 723.289 204.391Z" fill="#E0EAFC"/>
<path d="M702.172 7.66055C695.616 -0.724535 696.613 -11.939 704.266 -19.2607C712.651 -25.8171 723.865 -24.8199 730.422 -16.4348C736.978 -8.04973 735.981 3.16465 727.596 9.72105C719.976 15.5453 707.996 15.2803 702.172 7.66055Z" fill="#E0EAFC"/>
<path d="M734.626 98.269C728.036 91.3813 729.799 79.4348 736.686 72.8453C744.306 67.021 755.52 68.0182 761.345 75.638C767.169 83.2578 766.937 93.74 758.552 100.296C752.43 106.154 741.947 105.922 734.626 98.269Z" fill="#E0EAFC"/>
<path d="M656.883 23.1396C651.059 15.5198 652.056 4.30539 659.676 -1.51885C667.296 -7.34308 678.51 -6.34596 684.334 1.27383C690.159 8.89362 689.162 20.108 681.542 25.9322C673.922 31.7565 663.473 30.0272 656.883 23.1396Z" fill="#E0EAFC"/>
<path d="M706.314 159.068C701.222 152.214 701.454 141.732 708.309 136.64C715.163 131.547 725.645 131.779 730.738 138.634C735.83 145.488 735.598 155.971 728.743 161.063C722.621 166.92 712.904 165.956 706.314 159.068Z" fill="#E0EAFC"/>
<path d="M628.571 83.9394C623.479 77.0849 623.71 66.6027 630.565 61.5106C636.687 55.6533 647.902 56.6504 652.994 63.5049C658.086 70.3594 657.122 80.0763 650.999 85.9337C644.145 91.0258 634.428 90.0617 628.571 83.9394Z" fill="#E0EAFC"/>
<path d="M675.886 44.5339C683.506 38.7097 693.988 38.9415 699.813 46.5613C705.637 54.1811 705.405 64.6634 697.785 70.4876C690.165 76.3118 678.951 75.3146 673.859 68.4601C668.035 60.8403 668.266 50.3581 675.886 44.5339Z" fill="#E0EAFC"/>
<path d="M645.548 129.259C640.456 122.404 640.654 113.42 647.509 108.327C653.631 102.47 663.348 103.434 669.206 109.556C674.298 116.411 674.099 125.396 667.211 131.985C660.357 137.077 650.64 136.113 645.548 129.259Z" fill="#E0EAFC"/>
<path d="M692.096 90.5886C698.951 85.4966 709.433 85.7284 716.023 92.616C722.612 99.5037 720.883 109.953 713.995 116.542C706.375 122.367 696.658 121.403 690.834 113.783C684.245 106.895 684.477 96.4129 692.096 90.5886Z" fill="#E0EAFC"/>
<path d="M583.283 99.4165C577.426 93.2942 578.39 83.5773 585.244 78.4852C592.099 73.3931 601.084 73.5919 606.176 80.4464C611.268 87.3009 610.337 95.5204 604.214 101.378C598.857 106.503 589.14 105.539 583.283 99.4165Z" fill="#E0EAFC"/>
<path d="M661.026 174.549C655.933 167.694 656.864 159.475 662.987 153.618C669.841 148.526 678.826 148.724 683.918 155.579C689.01 162.433 688.079 170.653 681.957 176.51C676.6 181.635 666.883 180.671 661.026 174.549Z" fill="#E0EAFC"/>
<path d="M614.353 15.4571C620.476 9.59971 630.193 10.5637 636.782 17.4513C642.606 25.0711 641.642 34.7881 635.52 40.6454C628.666 45.7375 618.183 45.5056 613.091 38.6511C605.736 32.4957 606.734 21.2813 614.353 15.4571Z" fill="#E0EAFC"/>
<path d="M550.096 8.04251C545.004 1.18801 545.203 -7.79678 552.057 -12.8888C558.18 -18.7462 568.629 -17.0169 574.486 -10.8946C579.578 -4.04006 578.614 5.67689 571.76 10.769C564.905 15.861 555.188 14.897 550.096 8.04251Z" fill="#E0EAFC"/>
<path d="M598.144 -30.5955C605.764 -36.4198 615.48 -35.4558 621.305 -27.836C627.129 -20.2162 626.165 -10.4992 619.277 -3.90973C611.657 1.9145 601.941 0.950499 596.116 -6.66929C588.795 -14.3222 590.524 -24.7713 598.144 -30.5955Z" fill="#E0EAFC"/>
<path d="M566.307 54.0957C561.215 47.2412 561.414 38.2565 568.269 33.1644C575.123 28.0723 584.108 28.2711 589.2 35.1256C594.292 41.9801 593.328 51.697 586.473 56.789C581.882 61.182 572.165 60.218 566.307 54.0957Z" fill="#E0EAFC"/>
</svg>
