<svg width="837" height="839" viewBox="0 0 837 839" fill="none" xmlns="http://www.w3.org/2000/svg">
<path d="M817.522 649.459C816.624 650.318 815.764 649.42 815.764 649.42C815.764 649.42 815.803 647.663 815.842 645.906C816.701 646.804 818.459 646.843 818.459 646.843C818.42 648.6 817.522 649.459 817.522 649.459Z" fill="#E0EAFC"/>
<path d="M805.906 459.315C810.396 455.019 818.285 456.073 821.683 461.423C825.979 465.913 824.926 473.802 819.576 477.2C815.085 481.496 807.197 480.442 802.901 475.952C801.26 470.641 801.415 463.612 805.906 459.315Z" fill="#E0EAFC"/>
<path d="M752.408 493.295C749.869 488.844 749.986 483.572 753.578 480.135C757.17 476.698 763.302 477.712 766.739 481.305C770.176 484.897 769.161 491.029 765.568 494.466C761.976 497.902 755.845 496.888 752.408 493.295Z" fill="#E0EAFC"/>
<path d="M710.898 502.048C713.476 504.743 712.5 509.117 709.805 511.694C707.111 514.272 702.737 513.296 700.159 510.602C697.582 507.908 698.558 503.534 701.252 500.956C703.946 498.378 709.218 498.495 710.898 502.048Z" fill="#E0EAFC"/>
<path d="M786.023 404.373C791.411 399.217 799.3 400.271 804.455 405.659C809.611 411.048 807.659 419.796 803.168 424.092C796.921 428.349 789.891 428.194 785.634 421.946C779.58 417.417 780.634 409.528 786.023 404.373Z" fill="#E0EAFC"/>
<path d="M649.665 527.947C648.806 527.049 648.883 523.534 649.782 522.675C650.68 521.816 652.437 521.855 655.952 521.933C655.015 524.549 654.976 526.307 654.078 527.166C653.141 529.782 650.524 528.845 649.665 527.947Z" fill="#E0EAFC"/>
<path d="M728.007 563.085C726.211 564.804 723.595 563.867 721.876 562.071C720.158 560.275 721.095 557.658 722.891 555.94C724.687 554.221 727.304 555.158 729.022 556.954C729.842 559.61 729.804 561.367 728.007 563.085Z" fill="#E0EAFC"/>
<path d="M801.078 598.107C799.282 599.825 796.665 598.888 794.947 597.092C793.228 595.296 794.165 592.679 795.961 590.961C797.758 589.243 800.374 590.18 802.093 591.976C802.054 593.733 802.874 596.389 801.078 598.107Z" fill="#E0EAFC"/>
<path d="M742.696 614.397C741.837 613.499 742.735 612.64 741.876 611.742C743.633 611.781 744.492 612.679 744.492 612.679C744.492 612.679 744.453 614.436 743.555 615.296C745.313 615.334 743.555 615.296 742.696 614.397Z" fill="#E0EAFC"/>
<path d="M825.786 514.26C829.379 510.823 835.51 511.838 838.947 515.43C842.384 519.023 841.369 525.154 837.777 528.591C834.184 532.028 827.155 531.872 824.616 527.421C821.179 523.828 822.194 517.697 825.786 514.26Z" fill="#E0EAFC"/>
<path d="M672.243 580.312C670.486 580.273 669.626 579.375 669.626 579.375C668.767 578.477 669.665 577.618 670.563 576.759L672.321 576.798C672.282 578.555 672.282 578.555 672.243 580.312Z" fill="#E0EAFC"/>
<path d="M731.588 440.97C727.292 436.48 729.205 429.489 732.797 426.052C737.288 421.756 745.176 422.81 748.574 428.159C752.87 432.65 751.817 440.539 746.467 443.937C742.015 446.475 735.884 445.461 731.588 440.97Z" fill="#E0EAFC"/>
<path d="M619.7 412.122C623.137 415.715 622.161 420.088 618.569 423.525C614.977 426.962 610.603 425.986 607.166 422.394C604.588 419.7 604.705 414.428 608.297 410.991C611.851 409.311 617.123 409.428 619.7 412.122Z" fill="#E0EAFC"/>
<path d="M661.484 391.067C665.975 386.771 672.965 388.684 676.402 392.276C680.699 396.767 678.786 403.757 675.193 407.194C670.703 411.49 664.572 410.476 660.275 405.985C655.979 401.495 656.135 394.465 661.484 391.067Z" fill="#E0EAFC"/>
<path d="M562.804 440.753C561.008 442.471 558.391 441.534 556.673 439.738C554.954 437.942 555.891 435.325 557.687 433.607C559.484 431.889 562.1 432.825 563.819 434.622C564.678 435.52 564.6 439.034 562.804 440.753Z" fill="#E0EAFC"/>
<path d="M641.602 336.124C646.092 331.828 653.981 332.882 658.277 337.372C662.573 341.863 661.52 349.751 657.029 354.047C652.539 358.344 644.65 357.29 640.354 352.799C635.198 347.411 636.213 341.28 641.602 336.124Z" fill="#E0EAFC"/>
<path d="M507.94 457.12L506.183 457.081C505.324 456.183 505.324 456.183 505.363 454.426C505.363 454.426 506.261 453.566 505.402 452.668C506.261 453.566 507.159 452.707 508.018 453.605C507.979 455.363 507.081 456.222 507.94 457.12Z" fill="#E0EAFC"/>
<path d="M693.929 315.303C700.177 311.046 708.066 312.1 713.221 317.488C718.377 322.877 716.425 331.625 711.036 336.78C705.648 341.935 696.002 340.843 691.744 334.595C686.589 329.206 688.541 320.459 693.929 315.303Z" fill="#E0EAFC"/>
<path d="M681.367 446.011C684.96 442.574 691.091 443.588 693.63 448.04C697.067 451.632 696.052 457.764 693.358 460.341C689.765 463.778 683.634 462.764 680.197 459.171C675.901 454.681 676.916 448.549 681.367 446.011Z" fill="#E0EAFC"/>
<path d="M597.416 545.251L597.455 543.493C598.353 542.634 599.212 543.532 600.11 542.673C600.071 544.43 599.173 545.29 599.173 545.29C598.275 546.149 597.416 545.251 597.416 545.251Z" fill="#E0EAFC"/>
<path d="M636.735 476.672C634.04 479.249 629.666 478.273 628.846 475.618C626.268 472.924 628.103 469.448 629.9 467.729C632.594 465.152 636.07 466.987 637.788 468.783C639.507 470.579 639.429 474.094 636.735 476.672Z" fill="#E0EAFC"/>
<path d="M580.112 493.001C579.214 493.86 578.355 492.962 575.699 493.783C576.636 491.166 576.675 489.409 576.675 489.409C577.573 488.549 579.33 488.588 580.19 489.486C582.806 490.423 581.908 491.283 580.112 493.001Z" fill="#E0EAFC"/>
<path d="M713.811 370.249C719.2 365.093 727.088 366.147 731.346 372.395C736.501 377.783 735.448 385.672 729.2 389.929C724.709 394.226 715.922 394.031 711.665 387.783C707.369 383.293 707.563 374.506 713.811 370.249Z" fill="#E0EAFC"/>
<path d="M873.507 105.655C863.667 113.349 851.404 111.32 843.671 103.237C836.836 94.2947 837.147 80.2361 846.089 73.4011C855.032 66.5661 869.09 66.877 875.925 75.8192C883.658 83.9021 882.488 97.0627 873.507 105.655Z" fill="#E0EAFC"/>
<path d="M589.274 356.946C592.866 353.509 598.997 354.524 602.434 358.116C605.871 361.709 604.856 367.84 601.264 371.277C597.672 374.714 591.54 373.699 588.103 370.107C583.807 365.616 584.822 359.485 589.274 356.946Z" fill="#E0EAFC"/>
<path d="M348.837 19.3278C352.43 15.8909 357.702 16.0075 360.24 20.4591C363.677 24.0515 363.561 29.3236 359.109 31.8624C355.517 35.2993 350.245 35.1827 347.706 30.7311C345.128 28.0368 345.245 22.7647 348.837 19.3278Z" fill="#E0EAFC"/>
<path d="M303.345 49.0889C301.549 50.8074 298.932 49.8704 297.214 48.0742C295.495 46.278 296.432 43.6614 298.228 41.9429C300.025 40.2245 302.641 41.1615 304.36 42.9577C305.219 43.8558 305.141 47.3704 303.345 49.0889Z" fill="#E0EAFC"/>
<path d="M248.478 65.4572C247.58 66.3164 246.72 65.4183 246.72 65.4183C246.72 65.4183 246.759 63.661 246.798 61.9037C247.657 62.8018 249.415 62.8406 249.415 62.8406C248.517 63.6998 248.478 65.4572 248.478 65.4572Z" fill="#E0EAFC"/>
<path d="M420.187 52.5525C424.678 48.2563 431.668 50.1691 435.965 54.6596C440.261 59.1501 438.348 66.1406 433.857 70.4368C429.367 74.733 422.376 72.8202 418.08 68.3296C414.682 62.9799 414.838 55.9505 420.187 52.5525Z" fill="#E0EAFC"/>
<path d="M379.263 74.5045C382.7 78.0969 382.584 83.3689 378.132 85.9077C374.54 89.3447 370.166 88.3689 366.729 84.7764C363.292 81.184 364.268 76.8101 367.86 73.3732C370.554 70.7955 375.826 70.9121 379.263 74.5045Z" fill="#E0EAFC"/>
<path d="M453.489 -22.3125C458.877 -27.4679 466.766 -26.4143 471.921 -21.0257C477.077 -15.637 476.882 -6.85035 470.634 -2.59306C465.246 2.56234 456.498 0.610681 451.343 -4.77794C447.046 -9.26846 448.1 -17.1571 453.489 -22.3125Z" fill="#E0EAFC"/>
<path d="M400.266 -0.633603C404.756 -4.92977 412.645 -3.87618 416.941 0.614335C421.237 5.10485 420.184 12.9934 414.834 16.3915C410.343 20.6877 403.353 18.7748 399.057 14.2843C394.761 9.79381 395.775 3.66256 400.266 -0.633603Z" fill="#E0EAFC"/>
<path d="M266.643 118.605C265.745 119.464 264.886 118.566 263.988 119.426C264.027 117.668 264.925 116.809 264.925 116.809C264.925 116.809 266.682 116.848 267.541 117.746L266.643 118.605Z" fill="#E0EAFC"/>
<path d="M321.507 102.237C319.711 103.956 317.095 103.019 315.376 101.223C313.658 99.4264 314.595 96.8098 316.391 95.0914C318.187 93.3729 320.804 94.3099 322.522 96.1061C324.241 97.9023 324.163 101.417 321.507 102.237Z" fill="#E0EAFC"/>
<path d="M228.555 12.2715C227.657 13.1308 226.798 12.2326 225.939 11.3345C225.08 10.4364 225.978 9.57719 225.118 8.67909C225.118 8.67909 226.017 7.81989 226.876 8.71799C227.735 9.6161 228.633 8.75687 228.594 10.5142C229.492 9.65497 229.454 11.4123 228.555 12.2715Z" fill="#E0EAFC"/>
<path d="M546.593 378.856C549.17 381.551 548.195 385.925 545.5 388.502C542.806 391.08 538.432 390.104 535.854 387.41C533.277 384.716 534.252 380.342 536.947 377.764C540.5 376.084 544.015 376.162 546.593 378.856Z" fill="#E0EAFC"/>
<path d="M509.171 282.208C505.578 285.645 499.447 284.63 496.869 281.935C493.432 278.343 494.447 272.212 498.039 268.775C501.632 265.338 507.763 266.353 510.341 269.047C512.88 273.499 512.763 278.771 509.171 282.208Z" fill="#E0EAFC"/>
<path d="M470.712 351.684C468.916 353.403 466.3 352.466 464.581 350.669C462.863 348.873 463.8 346.257 465.596 344.538C467.392 342.82 470.009 343.757 471.727 345.553C473.446 347.349 473.368 350.864 470.712 351.684Z" fill="#E0EAFC"/>
<path d="M550.368 247.954C554.858 243.658 562.747 244.712 566.145 250.062C570.441 254.552 569.388 262.441 564.897 266.737C560.407 271.033 552.518 269.98 549.12 264.63C543.964 259.241 545.018 251.353 550.368 247.954Z" fill="#E0EAFC"/>
<path d="M581.913 173.049C587.302 167.894 596.948 168.986 602.103 174.375C607.259 179.763 606.166 189.409 600.778 194.565C595.389 199.72 585.743 198.628 580.588 193.239C575.432 187.851 576.525 178.205 581.913 173.049Z" fill="#E0EAFC"/>
<path d="M453.406 299.434C451.61 301.153 448.095 301.075 445.518 298.381C443.799 296.585 443.018 292.172 446.571 290.492C448.368 288.774 451.882 288.852 454.46 291.546C456.178 293.342 456.101 296.857 453.406 299.434Z" fill="#E0EAFC"/>
<path d="M340.531 156.283C338.735 158.001 336.977 157.962 335.259 156.166C333.54 154.37 333.579 152.613 335.376 150.894C337.172 149.176 339.788 150.113 340.648 151.011C343.264 151.948 342.327 154.564 340.531 156.283Z" fill="#E0EAFC"/>
<path d="M530.484 193.011C534.975 188.715 542.863 189.768 547.159 194.259C551.456 198.749 551.261 207.536 545.013 211.793C539.664 215.191 532.634 215.036 527.479 209.647C524.94 205.196 525.095 198.166 530.484 193.011Z" fill="#E0EAFC"/>
<path d="M489.775 403.974C488.017 403.935 486.26 403.896 485.401 402.998C484.541 402.1 483.721 399.444 485.478 399.483C486.377 398.624 488.134 398.663 488.993 399.561C489.852 400.459 489.813 402.216 489.775 403.974Z" fill="#E0EAFC"/>
<path d="M621.718 281.18C626.208 276.884 634.995 277.078 639.252 283.326C644.408 288.715 643.354 296.603 637.966 301.759C632.577 306.914 624.688 305.861 620.431 299.613C615.276 294.224 616.329 286.336 621.718 281.18Z" fill="#E0EAFC"/>
<path d="M601.798 227.994C607.187 222.838 615.934 224.79 621.09 230.179C626.245 235.567 625.191 243.456 619.803 248.611C614.414 253.767 604.768 252.674 601.37 247.325C595.356 241.038 596.448 231.392 601.798 227.994Z" fill="#E0EAFC"/>
<path d="M528.467 323.952C531.045 326.647 530.928 331.919 527.336 335.356C523.744 338.792 519.37 337.817 515.933 334.224C512.496 330.632 513.472 326.258 517.064 322.821C519.758 320.243 525.89 321.258 528.467 323.952Z" fill="#E0EAFC"/>
<path d="M569.39 302.002C573.88 297.706 580.011 298.72 584.308 303.211C588.604 307.701 587.589 313.833 583.099 318.129C578.608 322.425 572.477 321.41 568.181 316.92C563.884 312.429 564.899 306.298 569.39 302.002Z" fill="#E0EAFC"/>
<path d="M396.824 314.008C395.925 314.867 395.066 313.969 395.066 313.969C395.066 313.969 395.105 312.211 395.144 310.454C396.003 311.352 397.76 311.391 397.76 311.391C397.722 313.148 397.683 314.906 396.824 314.008Z" fill="#E0EAFC"/>
<path d="M491.539 85.7772C496.928 80.6218 505.675 82.5734 509.971 87.064C514.229 93.3118 513.175 101.2 508.685 105.497C502.437 109.754 494.548 108.7 491.15 103.351C485.097 98.8211 485.291 90.0345 491.539 85.7772Z" fill="#E0EAFC"/>
<path d="M477.258 214.692C480.85 211.255 487.88 211.411 490.418 215.862C493.855 219.455 493.7 226.484 488.35 229.882C484.758 233.319 478.626 232.304 474.33 227.814C472.651 224.26 473.665 218.129 477.258 214.692Z" fill="#E0EAFC"/>
<path d="M439.211 106.6C443.701 102.304 451.59 103.358 454.129 107.809C458.425 112.3 456.512 119.29 452.92 122.727C448.429 127.023 440.54 125.97 438.002 121.518C433.705 117.028 434.72 110.896 439.211 106.6Z" fill="#E0EAFC"/>
<path d="M397.156 139.953C393.563 143.39 389.189 142.414 385.752 138.821C382.316 135.229 384.19 129.996 386.884 127.418C389.578 124.84 395.709 125.855 398.287 128.549C401.724 132.142 399.85 137.375 397.156 139.953Z" fill="#E0EAFC"/>
<path d="M472.514 31.7322C477.902 26.5768 486.65 28.5285 491.806 33.9171C496.063 40.165 495.908 47.1943 490.519 52.3497C485.13 57.5051 477.242 56.4515 472.086 51.0629C465.174 45.6354 466.266 35.9894 472.514 31.7322Z" fill="#E0EAFC"/>
<path d="M359.593 208.572C358.695 209.431 355.181 209.353 354.321 208.455C353.462 207.557 352.642 204.902 355.297 204.081C356.195 203.222 358.812 204.159 360.569 204.198C360.53 205.955 360.491 207.713 359.593 208.572Z" fill="#E0EAFC"/>
<path d="M510.562 139.825C515.951 134.67 523.839 135.723 528.995 141.112C534.15 146.501 532.199 155.248 526.849 158.647C522.358 162.943 513.572 162.748 509.314 156.501C504.12 152.869 505.174 144.981 510.562 139.825Z" fill="#E0EAFC"/>
<path d="M434.576 236.603C437.154 239.298 436.178 243.672 434.382 245.39C431.687 247.968 427.313 246.992 424.736 244.298C422.158 241.603 423.134 237.229 425.828 234.652C428.522 232.074 432.857 234.807 434.576 236.603Z" fill="#E0EAFC"/>
<path d="M417.31 182.597C419.888 185.292 419.771 190.564 416.217 192.243C413.523 194.821 408.251 194.704 405.673 192.01C403.096 189.316 403.212 184.044 405.907 181.466C408.601 178.888 413.873 179.005 417.31 182.597Z" fill="#E0EAFC"/>
<path d="M458.235 160.644C462.725 156.348 468.857 157.363 473.153 161.853C477.449 166.344 476.434 172.475 471.944 176.771C467.453 181.067 460.463 179.155 457.026 175.562C452.73 171.072 453.744 164.941 458.235 160.644Z" fill="#E0EAFC"/>
<path d="M377.758 261.719C376.86 262.578 375.103 262.539 374.243 261.641C373.384 260.743 374.282 259.884 374.321 258.127C376.079 258.166 377.836 258.204 378.695 259.102C378.695 259.102 378.656 260.86 377.758 261.719Z" fill="#E0EAFC"/>
<path d="M674.007 262.118C680.293 256.103 689.939 257.196 694.196 263.444C699.352 268.832 698.259 278.478 691.973 284.493C685.725 288.75 676.938 288.556 672.681 282.308C667.564 275.162 667.759 266.375 674.007 262.118Z" fill="#E0EAFC"/>
<path d="M706.451 186.355C714.495 180.379 724.141 181.472 729.257 188.617C734.374 195.763 734.141 206.307 727.854 212.322C720.708 217.439 710.164 217.205 703.29 210.021C698.174 202.875 700.164 192.369 706.451 186.355Z" fill="#E0EAFC"/>
<path d="M654.124 207.174C660.41 201.159 670.056 202.251 676.071 208.538C682.086 214.825 680.993 224.471 673.847 229.587C666.701 234.704 657.915 234.509 652.798 227.364C647.643 221.975 648.735 212.329 654.124 207.174Z" fill="#E0EAFC"/>
<path d="M727.232 240.44C734.378 235.324 744.024 236.416 750.039 242.703C755.155 249.849 754.063 259.495 747.776 265.509C740.63 270.626 730.984 269.534 724.97 263.247C718.096 256.062 719.188 246.416 727.232 240.44Z" fill="#E0EAFC"/>
<path d="M799.443 274.563C806.589 269.447 817.133 269.68 822.249 276.826C828.264 283.113 827.132 294.516 819.986 299.632C813.7 305.647 802.296 304.516 797.18 297.37C791.165 291.083 791.399 280.539 799.443 274.563Z" fill="#E0EAFC"/>
<path d="M746.257 294.484C753.403 289.367 762.19 289.562 767.306 296.708C773.321 302.994 772.228 312.64 765.082 317.757C757.936 322.873 749.15 322.679 744.033 315.533C738.019 309.246 739.97 300.499 746.257 294.484Z" fill="#E0EAFC"/>
<path d="M615.217 98.1836C622.363 93.0671 632.907 93.3003 638.024 100.446C644.038 106.733 643.805 117.277 635.761 123.253C629.474 129.267 618.93 129.034 612.056 121.849C606.94 114.703 608.93 104.198 615.217 98.1836Z" fill="#E0EAFC"/>
<path d="M595.295 44.9986C601.581 38.984 612.984 40.1153 618.999 46.402C624.116 53.548 623.882 64.092 616.736 69.2086C609.552 76.0824 599.046 74.0918 593.032 67.8051C587.915 60.6592 589.008 51.0133 595.295 44.9986Z" fill="#E0EAFC"/>
<path d="M543.867 64.958C550.154 58.9434 559.8 60.0359 564.916 67.1818C570.931 73.4686 569.839 83.1144 562.693 88.231C556.406 94.2456 546.76 93.1531 541.643 86.0072C536.488 80.6186 537.58 70.9727 543.867 64.958Z" fill="#E0EAFC"/>
<path d="M766.139 349.427C771.527 344.272 781.173 345.364 785.431 351.612C789.688 357.86 789.494 366.647 783.246 370.904C776.998 375.161 768.211 374.967 763.954 368.719C758.799 363.33 758.993 354.544 766.139 349.427Z" fill="#E0EAFC"/>
<path d="M562.89 119.004C569.138 114.747 577.924 114.941 583.939 121.228C588.196 127.476 588.002 136.263 581.715 142.277C574.569 147.394 566.681 146.34 560.666 140.053C556.409 133.806 557.501 124.16 562.89 119.004Z" fill="#E0EAFC"/>
<path d="M635.099 153.129C641.386 147.115 651.032 148.207 657.046 154.494C663.061 160.78 661.93 172.184 654.784 177.3C647.638 182.417 637.992 181.324 631.977 175.038C627.72 168.79 628.812 159.144 635.099 153.129Z" fill="#E0EAFC"/>
<path d="M524.842 10.9131C531.128 4.89847 540.774 5.99088 545.891 13.1368C551.906 19.4236 550.813 29.0695 544.526 35.0841C538.24 41.0988 528.594 40.0063 523.477 32.8603C517.463 26.5736 518.555 16.9277 524.842 10.9131Z" fill="#E0EAFC"/>
<path d="M837.45 384.411C842.839 379.255 852.484 380.348 857.64 385.736C862.795 391.125 861.703 400.771 856.314 405.926C850.926 411.082 841.28 409.989 836.124 404.6C831.867 398.353 832.061 389.566 837.45 384.411Z" fill="#E0EAFC"/>
<path d="M784.865 536.21C787.443 538.904 786.467 543.278 783.772 545.856C781.078 548.434 775.806 548.317 773.228 545.623C770.651 542.929 770.767 537.656 774.36 534.22C777.913 532.54 782.287 533.516 784.865 536.21Z" fill="#E0EAFC"/>
<path d="M818.427 330.366C824.714 324.352 835.219 326.342 840.374 331.731C845.491 338.877 844.398 348.523 837.252 353.639C830.106 358.756 821.32 358.561 816.203 351.415C811.087 344.269 812.179 334.623 818.427 330.366Z" fill="#E0EAFC"/>
<path d="M824.648 49.1916C816.953 39.3514 818.124 26.1907 827.105 17.5984C836.945 9.90418 850.105 11.0744 857.8 20.9147C865.494 30.7549 864.324 43.9155 854.483 51.6097C845.541 58.4447 831.483 58.1338 824.648 49.1916Z" fill="#E0EAFC"/>
<path d="M771.499 67.3569C764.664 58.4148 765.834 45.2542 774.776 38.4192C783.719 31.5842 796.879 32.7544 803.714 41.6965C810.549 50.6387 809.379 63.7993 800.437 70.6343C791.495 77.4693 779.232 75.4399 771.499 67.3569Z" fill="#E0EAFC"/>
<path d="M829.509 226.876C823.533 218.832 823.805 206.53 831.849 200.555C839.893 194.579 852.195 194.851 858.17 202.895C864.146 210.939 863.874 223.24 855.83 229.216C848.645 236.09 837.242 234.959 829.509 226.876Z" fill="#E0EAFC"/>
<path d="M751.578 14.169C744.743 5.22685 745.015 -7.07449 753.996 -15.6668C762.938 -22.5018 775.24 -22.2297 783.832 -13.2487C790.667 -4.3065 789.497 8.85408 781.414 16.5872C772.472 23.4222 759.311 22.2519 751.578 14.169Z" fill="#E0EAFC"/>
<path d="M807.181 -35.5872C808.079 -36.4464 808.977 -37.3057 808.977 -37.3057L839.05 -5.87205C838.152 -5.01281 836.356 -3.29435 835.458 -2.43511C825.617 5.25912 812.457 4.08891 803.864 -4.89213C797.029 -13.8343 798.2 -26.9949 807.181 -35.5872Z" fill="#E0EAFC"/>
<path d="M574.868 14.656C569.752 7.51001 569.985 -3.03405 578.029 -9.00981C586.073 -14.9856 595.719 -13.8931 601.695 -5.84905C606.811 1.29691 606.578 11.841 598.534 17.8167C591.388 22.9333 579.985 21.8019 574.868 14.656Z" fill="#E0EAFC"/>
<path d="M738.273 138.708C732.297 130.664 732.569 118.363 740.613 112.387C747.798 105.513 760.959 106.683 766.934 114.727C772.91 122.772 771.779 134.175 764.594 141.049C756.55 147.024 745.147 145.893 738.273 138.708Z" fill="#E0EAFC"/>
<path d="M793.8 92.4641C802.742 85.6291 815.043 85.9013 821.878 94.8434C828.713 103.786 828.441 116.087 819.499 122.922C810.557 129.757 797.396 128.587 791.421 120.543C784.586 111.6 784.858 99.2991 793.8 92.4641Z" fill="#E0EAFC"/>
<path d="M627.156 -4.40539C621.18 -12.4495 622.312 -23.8526 629.496 -30.7265C637.541 -36.7023 648.944 -35.571 654.92 -27.5269C660.895 -19.4828 659.764 -8.07963 651.72 -2.10386C645.394 5.6681 633.132 3.63867 627.156 -4.40539Z" fill="#E0EAFC"/>
<path d="M758.196 191.893C752.221 183.849 752.454 173.305 760.498 167.329C767.683 160.455 779.086 161.586 785.96 168.771C791.935 176.815 791.702 187.359 783.619 195.092C775.575 201.068 764.172 199.937 758.196 191.893Z" fill="#E0EAFC"/>
<path d="M812.823 146.511C820.867 140.535 833.168 140.807 840.902 148.89C848.635 156.973 846.605 169.236 838.522 176.969C829.58 183.804 818.177 182.673 811.342 173.73C803.609 165.648 803.881 153.346 812.823 146.511Z" fill="#E0EAFC"/>
<path d="M685.126 156.871C678.252 149.686 679.383 138.283 687.427 132.307C695.471 126.332 706.015 126.565 711.991 134.609C717.967 142.653 716.875 152.299 709.69 159.173C703.403 165.187 692 164.056 685.126 156.871Z" fill="#E0EAFC"/>
<path d="M776.36 245.042C770.384 236.998 771.477 227.352 778.662 220.479C786.706 214.503 797.25 214.736 803.225 222.78C809.201 230.824 808.109 240.47 800.924 247.344C794.637 253.359 783.234 252.227 776.36 245.042Z" fill="#E0EAFC"/>
<path d="M721.588 58.3414C728.773 51.4675 740.176 52.5988 747.909 60.6818C754.744 69.6239 753.613 81.0272 746.428 87.901C738.384 93.8768 726.083 93.6047 720.107 85.5607C711.476 78.337 712.646 65.1764 721.588 58.3414Z" fill="#E0EAFC"/>
<path d="M646.18 49.6398C640.204 41.5957 640.437 31.0517 648.481 25.0759C655.666 18.2021 667.928 20.2315 674.802 27.4163C680.778 35.4604 679.647 46.8636 671.603 52.8394C663.559 58.8152 652.155 57.6839 646.18 49.6398Z" fill="#E0EAFC"/>
<path d="M702.566 4.29602C711.508 -2.53897 722.911 -1.40768 729.746 7.53449C736.581 16.4767 735.45 27.8799 727.367 35.613C718.425 42.448 707.021 41.3167 700.186 32.3745C691.594 23.3935 693.623 11.131 702.566 4.29602Z" fill="#E0EAFC"/>
<path d="M665.204 103.685C659.229 95.6412 659.462 85.0972 667.506 79.1214C675.55 73.1457 686.094 73.3789 692.07 81.4229C698.045 89.467 696.914 100.87 688.87 106.846C683.481 112.001 672.078 110.87 665.204 103.685Z" fill="#E0EAFC"/>
</svg>
