<svg width="22" height="22" viewBox="0 0 22 22" fill="none" xmlns="http://www.w3.org/2000/svg">
<rect width="22" height="22" fill="#F5F5F5"/>
<g id="&#225;&#131;&#155;&#225;&#131;&#157;&#225;&#131;&#172;&#225;&#131;&#167;&#225;&#131;&#157;&#225;&#131;&#145;&#225;&#131;&#152;&#225;&#131;&#154;&#225;&#131;&#157;&#225;&#131;&#145;&#225;&#131;&#148;&#225;&#131;&#145;&#225;&#131;&#152;" clip-path="url(#clip0_24_4530)">
<rect width="1920" height="1080" transform="translate(-936 -472)" fill="#F8F9FA"/>
<g id="Group 8040">
<g id="Rectangle 540" filter="url(#filter0_d_24_4530)">
<rect x="-385" y="-343" width="440" height="768" rx="24" fill="white"/>
</g>
<g id="Frame" clip-path="url(#clip1_24_4530)">
<g id="Group">
<path id="Vector" d="M11 22C4.92484 22 0 17.0572 0 11C0 8.07026 1.15033 5.30229 3.21732 3.21732C5.30229 1.15033 8.05229 0 11 0C13.9477 0 16.6977 1.15033 18.7827 3.21732C20.8676 5.30229 22 8.05229 22 11C22 13.9477 20.8497 16.6977 18.7827 18.7827C16.6977 20.8497 13.9297 22 11 22ZM11 0.898693C8.30392 0.898693 5.76961 1.94118 3.86438 3.86438C1.94118 5.76961 0.898693 8.30392 0.898693 11C0.898693 16.5719 5.4281 21.1013 11 21.1013C13.6961 21.1013 16.2304 20.0588 18.1356 18.1356C20.0408 16.2304 21.1013 13.6961 21.1013 11C21.1013 8.30392 20.0588 5.76961 18.1356 3.86438C16.2304 1.94118 13.6961 0.898693 11 0.898693Z" fill="url(#paint0_linear_24_4530)"/>
<path id="Vector_2" d="M17.1649 4.83506L9.45414 17.3089C9.29238 17.5606 8.9329 17.5785 8.77113 17.3269L4.83486 11.8449C4.69107 11.6472 4.92473 11.3955 5.14042 11.5213L8.861 13.6962L16.8054 4.56546C16.9852 4.34977 17.3087 4.6014 17.1649 4.83506Z" fill="url(#paint1_linear_24_4530)"/>
</g>
</g>
</g>
</g>
<defs>
<filter id="filter0_d_24_4530" x="-389" y="-343" width="448" height="776" filterUnits="userSpaceOnUse" color-interpolation-filters="sRGB">
<feFlood flood-opacity="0" result="BackgroundImageFix"/>
<feColorMatrix in="SourceAlpha" type="matrix" values="0 0 0 0 0 0 0 0 0 0 0 0 0 0 0 0 0 0 127 0" result="hardAlpha"/>
<feOffset dy="4"/>
<feGaussianBlur stdDeviation="2"/>
<feComposite in2="hardAlpha" operator="out"/>
<feColorMatrix type="matrix" values="0 0 0 0 0 0 0 0 0 0 0 0 0 0 0 0 0 0 0.25 0"/>
<feBlend mode="normal" in2="BackgroundImageFix" result="effect1_dropShadow_24_4530"/>
<feBlend mode="normal" in="SourceGraphic" in2="effect1_dropShadow_24_4530" result="shape"/>
</filter>
<linearGradient id="paint0_linear_24_4530" x1="0" y1="10.9974" x2="21.9962" y2="10.9974" gradientUnits="userSpaceOnUse">
<stop stop-color="#4FC646"/>
<stop offset="1" stop-color="#3FB06B"/>
</linearGradient>
<linearGradient id="paint1_linear_24_4530" x1="4.79789" y1="10.9975" x2="17.1981" y2="10.9975" gradientUnits="userSpaceOnUse">
<stop stop-color="#4FC646"/>
<stop offset="1" stop-color="#3FB06B"/>
</linearGradient>
<clipPath id="clip0_24_4530">
<rect width="1920" height="1080" fill="white" transform="translate(-936 -472)"/>
</clipPath>
<clipPath id="clip1_24_4530">
<rect width="22" height="22" fill="white"/>
</clipPath>
</defs>
</svg>
