<svg width="22" height="22" viewBox="0 0 22 22" fill="none" xmlns="http://www.w3.org/2000/svg">
<g id="Group">
<g id="Group_2">
<path id="Vector" d="M11 22C4.94281 22 0 17.0572 0 11C0 8.07026 1.15033 5.30229 3.21732 3.21732C5.30229 1.13235 8.05228 0 11 0C13.9297 0 16.6977 1.15033 18.7827 3.21732C20.8676 5.30229 22 8.05229 22 11C22 13.9297 20.8497 16.6977 18.7827 18.7827C16.6977 20.8497 13.9297 22 11 22ZM11 0.898693C8.30392 0.898693 5.76961 1.94118 3.86438 3.86438C1.95915 5.76961 0.898693 8.30392 0.898693 11C0.898693 16.5719 5.4281 21.1013 11 21.1013C13.6961 21.1013 16.2304 20.0588 18.1356 18.1356C20.0408 16.2124 21.1013 13.6961 21.1013 11C21.1013 8.30392 20.0588 5.76961 18.1356 3.86438C16.2304 1.95915 13.6961 0.898693 11 0.898693Z" fill="#EE4444"/>
</g>
<path id="Vector_2" d="M16.8954 7.67453C17.3627 7.13531 17.2729 6.32649 16.6977 5.91309C16.1585 5.51767 15.4216 5.62551 15.0261 6.14675C14.2533 7.13531 12.9052 8.80688 11.1618 10.5863C9.79574 9.13041 8.75326 7.81832 8.1062 6.99152C7.71078 6.47028 6.95587 6.36244 6.43463 6.75786C5.85946 7.17126 5.76959 7.99806 6.23691 8.5193C6.91992 9.31015 8.07025 10.5324 9.75979 11.9523C8.33986 13.2644 6.72221 14.5585 4.99672 15.619C4.79901 15.7268 4.74509 15.9785 4.87091 16.1762C4.97875 16.3379 5.19443 16.3919 5.37417 16.302C7.56698 15.1876 9.43626 14.0373 11 12.9409C12.3301 13.9654 13.9477 15.0438 15.8529 16.1222C16.0686 16.2481 16.3562 16.1762 16.5 15.9785C16.6618 15.7628 16.6078 15.4392 16.3921 15.2775C14.9363 14.217 13.6062 13.0307 12.4379 11.8804C14.6487 10.1369 16.0866 8.60917 16.8954 7.67453Z" fill="#EE4444"/>
</g>
</svg>
