<svg width="88" height="88" viewBox="0 0 88 88" fill="none" xmlns="http://www.w3.org/2000/svg">
<path d="M55.7328 11H32.2672C26.6359 11 22 15.5356 22 21.045V66.955C22 72.4644 26.6359 77 32.2672 77H55.7328C61.364 77 66 72.4644 66 66.955V21.045C66 15.5356 61.364 11 55.7328 11ZM49.337 31.0846H38.663C36.2598 31.0846 34.2635 29.1315 34.2635 26.7803C34.2635 24.4292 36.2598 22.4761 38.663 22.4761H49.337C51.7402 22.4761 53.7365 24.4292 53.7365 26.7803C53.7365 29.1315 51.7402 31.0846 49.337 31.0846Z" fill="#063776" fill-opacity="0.6"/>
</svg>
