<svg width="280" height="280" viewBox="0 0 280 280" fill="none" xmlns="http://www.w3.org/2000/svg">
<path fill-rule="evenodd" clip-rule="evenodd" d="M140 261.091C206.877 261.091 261.091 206.877 261.091 140C261.091 73.1233 206.877 18.9091 140 18.9091C73.1233 18.9091 18.9091 73.1233 18.9091 140C18.9091 206.877 73.1233 261.091 140 261.091ZM140 280C217.32 280 280 217.32 280 140C280 62.6801 217.32 0 140 0C62.6801 0 0 62.6801 0 140C0 217.32 62.6801 280 140 280Z" fill="#063776"/>
<path d="M237.319 34L274.353 86.632L231.034 117.113L194 64.4806L237.319 34Z" fill="#F8F9FA"/>
</svg>
