<svg width="294" height="115" viewBox="0 0 294 115" fill="none" xmlns="http://www.w3.org/2000/svg">
<path d="M91.7462 36.7824C91.7462 36.7824 76.2484 38.282 50.0021 39.7816C24.0058 41.2812 7.50813 44.0304 3.5087 56.5271C2.25888 60.7759 1.00906 66.0245 0.259163 71.0232C-1.24062 80.5207 4.25859 89.2683 4.25859 89.2683C4.25859 89.2683 23.0059 90.0181 48.0024 90.7679C49.7521 104.264 61.5005 114.761 75.4985 114.761C88.9965 114.761 100.495 105.014 102.745 92.0176C120.742 92.2675 143.739 92.5174 157.737 92.0176V36.7824C148.988 37.0323 136.24 37.5322 125.491 37.5322C107.244 37.5322 104.244 34.7829 123.992 21.2865C138.24 11.5391 151.488 7.29025 157.737 5.54072V0.791992C154.987 0.791992 136.99 4.04112 121.492 13.2886C106.244 22.5362 91.7462 36.7824 91.7462 36.7824ZM35.5042 56.0272L9.00792 56.5271C9.00792 56.5271 12.2575 51.2785 19.2565 48.5292C26.0055 45.78 36.504 46.7797 36.504 46.7797L35.5042 56.0272ZM94.4958 92.0176C92.2461 100.265 84.7471 106.514 75.7484 106.514C66.4997 106.514 58.5009 99.7655 56.7511 91.0178C56.5012 89.7682 56.2512 88.5185 56.2512 87.0189C56.2512 76.2718 65 67.5241 75.7484 67.5241C86.4969 67.5241 95.2457 76.2718 95.2457 87.0189C94.9957 88.7684 94.7457 90.518 94.4958 92.0176Z" fill="white"/>
<path d="M262.768 58.3545H270.209V72.3829L283.431 58.3545H292.72L279.498 71.7194L294 92.1933H284.664L274.474 76.98L270.209 81.2928V92.1933H262.768V58.3545Z" fill="white"/>
<path d="M236.006 73.6625H244.157C245.864 73.6625 247.143 73.2834 247.996 72.5251C248.849 71.7668 249.276 70.5346 249.276 68.8284C249.276 67.1854 248.849 66.0006 247.996 65.2739C247.143 64.5156 245.864 64.1365 244.157 64.1365H236.006V73.6625ZM228.565 58.3545H246.811C248.328 58.3545 249.687 58.6073 250.887 59.1128C252.12 59.5867 253.162 60.2502 254.015 61.1033C254.9 61.9564 255.563 62.9516 256.006 64.0891C256.48 65.1949 256.717 66.3955 256.717 67.691C256.717 69.6815 256.29 71.4034 255.437 72.8568C254.616 74.3102 253.257 75.4161 251.361 76.1744V76.2691C252.277 76.5219 253.036 76.9169 253.636 77.454C254.236 77.9595 254.726 78.5756 255.105 79.3023C255.484 79.9974 255.753 80.7715 255.911 81.6246C256.101 82.4777 256.227 83.3307 256.29 84.1838C256.322 84.7209 256.353 85.3529 256.385 86.0796C256.417 86.8062 256.464 87.5487 256.527 88.307C256.622 89.0653 256.748 89.792 256.906 90.4871C257.096 91.1506 257.364 91.7193 257.712 92.1933H250.271C249.86 91.119 249.608 89.8394 249.513 88.3544C249.418 86.8694 249.276 85.4476 249.086 84.089C248.834 82.3197 248.296 81.0243 247.475 80.2028C246.653 79.3813 245.311 78.9706 243.447 78.9706H236.006V92.1933H228.565V58.3545Z" fill="white"/>
<path d="M204.652 79.1127H213.42L209.154 66.6957H209.059L204.652 79.1127ZM205.363 58.3545H212.993L225.647 92.1933H217.922L215.363 84.6578H202.709L200.055 92.1933H192.567L205.363 58.3545Z" fill="white"/>
<path d="M175.468 74.2786H181.25C182.103 74.2786 182.925 74.2154 183.715 74.0891C184.505 73.9627 185.2 73.7257 185.8 73.3782C186.4 72.999 186.874 72.4777 187.222 71.8142C187.601 71.1507 187.791 70.2818 187.791 69.2075C187.791 68.1333 187.601 67.2644 187.222 66.6009C186.874 65.9374 186.4 65.4319 185.8 65.0843C185.2 64.7052 184.505 64.4524 183.715 64.326C182.925 64.1997 182.103 64.1365 181.25 64.1365H175.468V74.2786ZM168.028 58.3545H183.288C185.405 58.3545 187.206 58.6705 188.691 59.3024C190.176 59.9027 191.377 60.7084 192.293 61.7194C193.241 62.7305 193.92 63.8837 194.331 65.1791C194.773 66.4745 194.994 67.8173 194.994 69.2075C194.994 70.5662 194.773 71.909 194.331 73.236C193.92 74.5314 193.241 75.6846 192.293 76.6957C191.377 77.7067 190.176 78.5282 188.691 79.1601C187.206 79.7604 185.405 80.0606 183.288 80.0606H175.468V92.1933H168.028V58.3545Z" fill="white"/>
<path d="M270.749 21.4691L258.332 0.805664H266.673L274.588 14.1706L282.455 0.805664H290.749L278.19 21.6587V34.6445H270.749V21.4691Z" fill="white"/>
<path d="M236.274 23.4123C236.274 24.5497 236.48 25.5134 236.89 26.3033C237.301 27.0931 237.838 27.7409 238.502 28.2464C239.197 28.7203 240.003 29.0837 240.919 29.3364C241.835 29.5576 242.783 29.6682 243.762 29.6682C244.426 29.6682 245.137 29.6208 245.895 29.526C246.653 29.3996 247.364 29.1785 248.028 28.8625C248.691 28.5465 249.244 28.12 249.687 27.5829C250.129 27.0142 250.35 26.3033 250.35 25.4502C250.35 24.5339 250.05 23.7914 249.45 23.2227C248.881 22.654 248.123 22.18 247.175 21.8009C246.227 21.4218 245.153 21.09 243.952 20.8056C242.751 20.5213 241.535 20.2053 240.303 19.8578C239.039 19.5418 237.807 19.1627 236.606 18.7203C235.405 18.2464 234.331 17.6461 233.383 16.9194C232.435 16.1927 231.661 15.2922 231.061 14.218C230.492 13.1121 230.208 11.7851 230.208 10.2369C230.208 8.49919 230.571 6.9984 231.298 5.73458C232.056 4.43917 233.036 3.36492 234.236 2.51184C235.437 1.65876 236.796 1.02685 238.312 0.616111C239.829 0.205371 241.345 0 242.862 0C244.631 0 246.322 0.205371 247.933 0.616111C249.576 0.995258 251.029 1.62717 252.293 2.51184C253.557 3.39652 254.552 4.53395 255.279 5.92416C256.037 7.28276 256.416 8.94153 256.416 10.9004H249.213C249.149 9.88939 248.928 9.05211 248.549 8.38861C248.202 7.7251 247.728 7.20377 247.127 6.82463C246.527 6.44548 245.832 6.17692 245.042 6.01894C244.284 5.86097 243.446 5.78198 242.53 5.78198C241.93 5.78198 241.33 5.84517 240.729 5.97155C240.129 6.09793 239.576 6.3191 239.07 6.63506C238.597 6.95101 238.202 7.34596 237.886 7.81989C237.57 8.29382 237.412 8.89414 237.412 9.62083C237.412 10.2843 237.538 10.8215 237.791 11.2322C238.044 11.6429 238.533 12.0221 239.26 12.3696C240.018 12.7172 241.045 13.0647 242.341 13.4123C243.668 13.7598 245.39 14.2022 247.506 14.7393C248.138 14.8657 249.007 15.1027 250.113 15.4502C251.251 15.7662 252.372 16.2875 253.478 17.0142C254.584 17.7409 255.532 18.7203 256.322 19.9526C257.143 21.1532 257.554 22.7014 257.554 24.5971C257.554 26.1453 257.254 27.5829 256.653 28.9099C256.053 30.2369 255.153 31.3901 253.952 32.3696C252.783 33.3175 251.314 34.06 249.544 34.5971C247.807 35.1342 245.785 35.4028 243.478 35.4028C241.614 35.4028 239.797 35.1658 238.028 34.6919C236.29 34.2495 234.742 33.5386 233.383 32.5592C232.056 31.5797 230.998 30.3317 230.208 28.8151C229.418 27.2985 229.039 25.4976 229.07 23.4123H236.274Z" fill="white"/>
<path d="M207.29 21.5639H216.058L211.792 9.14688H211.698L207.29 21.5639ZM208.001 0.805664H215.631L228.285 34.6445H220.56L218.001 27.1089H205.347L202.693 34.6445H195.205L208.001 0.805664Z" fill="white"/>
<path d="M168.028 0.805664H193.336V7.06158H175.468V14.3127H191.866V20.0947H175.468V28.3885H193.715V34.6445H168.028V0.805664Z" fill="white"/>
</svg>
