<svg width="293" height="115" viewBox="0 0 293 115" fill="none" xmlns="http://www.w3.org/2000/svg">
<path d="M91.4341 36.6575C91.4341 36.6575 75.989 38.152 49.832 39.6465C23.9241 41.141 7.48259 43.8809 3.49677 56.3351C2.2512 60.5695 1.00562 65.8002 0.258282 70.7819C-1.2364 80.247 4.24411 88.9649 4.24411 88.9649C4.24411 88.9649 22.9277 89.7122 47.8391 90.4594C49.5829 103.91 61.2913 114.371 75.2417 114.371C88.6938 114.371 100.153 104.657 102.395 91.7048C120.331 91.9539 143.25 92.203 157.2 91.7048V36.6575C148.481 36.9066 135.776 37.4048 125.065 37.4048C106.879 37.4048 103.89 34.6648 123.57 21.2144C137.769 11.5001 150.972 7.26571 157.2 5.52213V0.789551C154.46 0.789551 136.524 4.02763 121.079 13.2437C105.883 22.4598 91.4341 36.6575 91.4341 36.6575ZM35.3834 55.8369L8.97728 56.3351C8.97728 56.3351 12.2158 51.1043 19.191 48.3644C25.917 45.6245 36.3798 46.6208 36.3798 46.6208L35.3834 55.8369ZM94.1744 91.7048C91.9323 99.9246 84.4589 106.152 75.4908 106.152C66.2736 106.152 58.3019 99.4264 56.5581 90.7085C56.309 89.4631 56.0599 88.2177 56.0599 86.7232C56.0599 76.0126 64.7789 67.2947 75.4908 67.2947C86.2027 67.2947 94.9217 76.0126 94.9217 86.7232C94.6726 88.4668 94.4235 90.2104 94.1744 91.7048Z" fill="#063776"/>
<path d="M261.874 58.1562H269.29V72.1369L282.467 58.1562H291.725L278.547 71.4757L293 91.8799H283.695L273.54 76.7184L269.29 81.0166V91.8799H261.874V58.1562Z" fill="#002355"/>
<path d="M235.203 73.4122H243.327C245.027 73.4122 246.303 73.0344 247.153 72.2786C248.003 71.5229 248.428 70.2949 248.428 68.5945C248.428 66.9572 248.003 65.7764 247.153 65.0521C246.303 64.2964 245.027 63.9186 243.327 63.9186H235.203V73.4122ZM227.788 58.1562H245.972C247.483 58.1562 248.837 58.4082 250.034 58.912C251.262 59.3843 252.301 60.0455 253.151 60.8957C254.033 61.7459 254.694 62.7378 255.135 63.8713C255.607 64.9734 255.843 66.17 255.843 67.461C255.843 69.4447 255.418 71.1608 254.568 72.6093C253.75 74.0577 252.396 75.1598 250.506 75.9155V76.01C251.419 76.2619 252.175 76.6555 252.773 77.1908C253.372 77.6946 253.86 78.3086 254.238 79.0328C254.615 79.7256 254.883 80.497 255.041 81.3472C255.229 82.1974 255.355 83.0475 255.418 83.8977C255.45 84.433 255.481 85.0628 255.513 85.787C255.544 86.5112 255.592 87.2512 255.655 88.0069C255.749 88.7626 255.875 89.4868 256.032 90.1796C256.221 90.8408 256.489 91.4076 256.835 91.8799H249.42C249.011 90.8093 248.759 89.5341 248.664 88.0541C248.57 86.5742 248.428 85.1572 248.239 83.8033C247.987 82.0399 247.452 80.7489 246.633 79.9302C245.815 79.1115 244.476 78.7022 242.619 78.7022H235.203V91.8799H227.788V58.1562Z" fill="#002355"/>
<path d="M203.956 78.8439H212.694L208.443 66.4691H208.348L203.956 78.8439ZM204.664 58.1562H212.268L224.879 91.8799H217.181L214.63 84.37H202.019L199.374 91.8799H191.911L204.664 58.1562Z" fill="#002355"/>
<path d="M174.871 74.0262H180.634C181.484 74.0262 182.303 73.9632 183.09 73.8373C183.877 73.7113 184.57 73.4752 185.168 73.1288C185.766 72.751 186.239 72.2314 186.585 71.5702C186.963 70.9089 187.152 70.043 187.152 68.9724C187.152 67.9018 186.963 67.0359 186.585 66.3746C186.239 65.7134 185.766 65.2096 185.168 64.8632C184.57 64.4853 183.877 64.2334 183.09 64.1075C182.303 63.9815 181.484 63.9186 180.634 63.9186H174.871V74.0262ZM167.456 58.1562H182.665C184.774 58.1562 186.569 58.4711 188.049 59.1009C189.529 59.6992 190.726 60.5021 191.639 61.5097C192.583 62.5174 193.26 63.6667 193.67 64.9577C194.111 66.2487 194.331 67.5869 194.331 68.9724C194.331 70.3264 194.111 71.6646 193.67 72.9871C193.26 74.2781 192.583 75.4274 191.639 76.4351C190.726 77.4427 189.529 78.2614 188.049 78.8911C186.569 79.4894 184.774 79.7885 182.665 79.7885H174.871V91.8799H167.456V58.1562Z" fill="#002355"/>
<path d="M269.828 21.3964L257.453 0.803223H265.766L273.654 14.1227L281.494 0.803223H289.76L277.243 21.5853V34.5269H269.828V21.3964Z" fill="#002355"/>
<path d="M235.471 23.3326C235.471 24.4662 235.675 25.4266 236.085 26.2138C236.494 27.001 237.029 27.6465 237.69 28.1503C238.383 28.6226 239.186 28.9847 240.099 29.2366C241.012 29.4571 241.957 29.5673 242.933 29.5673C243.594 29.5673 244.303 29.52 245.059 29.4256C245.814 29.2996 246.523 29.0792 247.184 28.7643C247.845 28.4494 248.396 28.0244 248.837 27.4891C249.278 26.9223 249.498 26.2138 249.498 25.3636C249.498 24.4505 249.199 23.7105 248.601 23.1437C248.034 22.5769 247.279 22.1046 246.334 21.7267C245.389 21.3489 244.319 21.0183 243.122 20.7349C241.926 20.4515 240.713 20.1366 239.485 19.7902C238.226 19.4754 236.998 19.0975 235.801 18.6567C234.605 18.1843 233.534 17.5861 232.589 16.8618C231.645 16.1376 230.873 15.2402 230.275 14.1696C229.708 13.0675 229.425 11.745 229.425 10.2021C229.425 8.47028 229.787 6.9746 230.511 5.71508C231.267 4.42407 232.243 3.35348 233.44 2.5033C234.636 1.65312 235.99 1.02336 237.502 0.614015C239.013 0.204672 240.524 0 242.036 0C243.799 0 245.484 0.204672 247.09 0.614015C248.727 0.991872 250.175 1.62163 251.435 2.5033C252.694 3.38496 253.686 4.51853 254.411 5.90401C255.166 7.25799 255.544 8.91111 255.544 10.8634H248.365C248.302 9.85575 248.081 9.02132 247.704 8.36007C247.357 7.69882 246.885 7.17927 246.287 6.80142C245.688 6.42356 244.996 6.15591 244.208 5.99847C243.453 5.84103 242.618 5.76231 241.705 5.76231C241.107 5.76231 240.509 5.82529 239.91 5.95124C239.312 6.07719 238.761 6.29761 238.257 6.61249C237.785 6.92737 237.391 7.32097 237.076 7.79329C236.762 8.26561 236.604 8.86388 236.604 9.58811C236.604 10.2494 236.73 10.7847 236.982 11.194C237.234 11.6033 237.722 11.9812 238.446 12.3276C239.202 12.6739 240.225 13.0203 241.516 13.3667C242.839 13.713 244.555 14.1539 246.665 14.6892C247.294 14.8151 248.16 15.0513 249.262 15.3976C250.396 15.7125 251.514 16.2321 252.616 16.9563C253.718 17.6805 254.662 18.6567 255.45 19.8847C256.268 21.0812 256.678 22.6242 256.678 24.5134C256.678 26.0564 256.379 27.4891 255.78 28.8116C255.182 30.1341 254.285 31.2834 253.088 32.2595C251.923 33.2041 250.459 33.9441 248.696 34.4794C246.964 35.0147 244.948 35.2823 242.65 35.2823C240.792 35.2823 238.981 35.0462 237.218 34.5739C235.486 34.133 233.943 33.4246 232.589 32.4484C231.267 31.4723 230.212 30.2285 229.425 28.7171C228.638 27.2057 228.26 25.4109 228.291 23.3326H235.471Z" fill="#002355"/>
<path d="M206.585 21.4909H215.323L211.072 9.11606H210.977L206.585 21.4909ZM207.293 0.803223H214.898L227.509 34.5269H219.81L217.259 27.017H204.648L202.003 34.5269H194.541L207.293 0.803223Z" fill="#002355"/>
<path d="M167.456 0.803223H192.678V7.03786H174.871V14.2644H191.214V20.0267H174.871V28.2923H193.056V34.5269H167.456V0.803223Z" fill="#002355"/>
</svg>
