<svg width="279" height="279" viewBox="0 0 279 279" fill="none" xmlns="http://www.w3.org/2000/svg">
<path d="M139.5 279C63.0718 279 0 216.67 0 140.242C0 63.8138 62.3298 0 139.5 0C216.67 0 279 62.3298 279 139.5C279 215.928 215.928 279 139.5 279ZM139.5 19.2925C72.7181 19.2925 19.2926 73.4601 19.2926 139.5C19.2926 206.282 73.4601 259.707 139.5 259.707C206.282 259.707 259.707 205.54 259.707 139.5C259.707 73.4601 206.282 19.2925 139.5 19.2925Z" fill="#25314C"/>
<path d="M102.399 187.733C99.4309 175.118 110.561 165.472 119.465 161.02C137.274 152.858 165.471 156.568 175.859 176.602C177.343 179.57 178.085 182.539 178.085 186.249C176.601 188.475 173.633 191.443 170.665 191.443C169.181 191.443 166.955 189.959 165.471 188.475C155.082 180.312 141.726 177.344 129.112 180.312C123.176 181.796 117.981 184.765 112.787 187.733C110.561 189.959 103.883 193.669 102.399 187.733Z" fill="#25314C"/>
<path d="M172.891 128.371C180.268 128.371 186.247 122.391 186.247 115.015C186.247 107.638 180.268 101.658 172.891 101.658C165.514 101.658 159.535 107.638 159.535 115.015C159.535 122.391 165.514 128.371 172.891 128.371Z" fill="#25314C"/>
<path d="M106.109 128.371C113.486 128.371 119.465 122.391 119.465 115.015C119.465 107.638 113.486 101.658 106.109 101.658C98.7325 101.658 92.7527 107.638 92.7527 115.015C92.7527 122.391 98.7325 128.371 106.109 128.371Z" fill="#25314C"/>
</svg>
