<svg width="285" height="235" viewBox="0 0 285 235" fill="none" xmlns="http://www.w3.org/2000/svg">
<path d="M281.71 202.255L160.594 9.88323C152.953 -3.00803 132.686 -3.40843 124.684 9.38947C124.39 9.42951 3.63385 202.065 3.28843 202.253C-5.76906 215.771 5.06522 235.549 21.3904 234.988H263.608C279.946 235.522 290.767 215.786 281.71 202.255ZM244.021 202.828C242.806 205.111 240.388 206.525 237.823 206.525H47.1857C41.8286 206.658 38.0878 200.146 41.2007 195.635L136.454 44.1953C139.086 40.0717 145.926 40.0717 148.571 44.1953L222.022 160.98L243.825 195.639C245.254 197.841 245.321 200.616 244.039 202.832L244.021 202.828Z" fill="#FFCA40"/>
<path d="M60.0773 192.287H224.931L142.502 61.3447L60.0773 192.287ZM142.506 180.823C131.738 180.596 131.752 164.635 142.506 164.449C153.273 164.595 153.287 180.623 142.506 180.823ZM149.626 97.4163V149.864C149.453 159.192 135.559 159.219 135.372 149.864V97.4163C135.545 88.0879 149.439 88.0613 149.626 97.4163Z" fill="#FFCA40"/>
</svg>
