<svg width="105" height="105" viewBox="0 0 105 105" fill="none" xmlns="http://www.w3.org/2000/svg">
<g clip-path="url(#clip0_614_133972)">
<rect width="105" height="105" rx="52.5" fill="#15CD5C"/>
<path d="M52.5 105C23.5049 105 0 81.4093 0 52.5C0 38.5172 5.4902 25.3064 15.3554 15.3554C25.3064 5.4902 38.4314 0 52.5 0C66.5686 0 79.6936 5.4902 89.6446 15.3554C99.5956 25.3064 105 38.4314 105 52.5C105 66.5686 99.5098 79.6936 89.6446 89.6446C79.6936 99.5098 66.4828 105 52.5 105ZM52.5 4.28922C39.6324 4.28922 27.5368 9.26471 18.4436 18.4436C9.26471 27.5368 4.28922 39.6324 4.28922 52.5C4.28922 79.0931 25.9069 100.711 52.5 100.711C65.3676 100.711 77.4632 95.7353 86.5564 86.5564C95.6495 77.4632 100.711 65.3676 100.711 52.5C100.711 39.6324 95.7353 27.5368 86.5564 18.4436C77.4632 9.26471 65.3676 4.28922 52.5 4.28922Z" fill="white"/>
<path d="M81.9241 23.0759L45.1227 82.6102C44.3506 83.8112 42.6349 83.8969 41.8629 82.696L23.0761 56.5318C22.3898 55.5881 23.505 54.3871 24.5344 54.9876L42.2918 65.3675L80.2084 21.7891C81.0663 20.7597 82.6104 21.9607 81.9241 23.0759Z" fill="white"/>
</g>
<defs>
<clipPath id="clip0_614_133972">
<rect width="105" height="105" rx="52.5" fill="white"/>
</clipPath>
</defs>
</svg>
