<svg width="81" height="80" viewBox="0 0 81 80" fill="none" xmlns="http://www.w3.org/2000/svg">
<path d="M45.829 48.8333C45.829 56.7392 52.2773 63.1875 60.1831 63.1875H80.0581V66.5C80.0581 75.3333 75.6415 79.75 66.8081 79.75H13.8081C4.9748 79.75 0.558136 75.3333 0.558136 66.5V9.08333C0.558136 13.9417 4.53314 17.9167 9.39147 17.9167H66.8081C75.6415 17.9167 80.0581 22.3333 80.0581 31.1667V34.4792H60.1831C52.2773 34.4792 45.829 40.9275 45.829 48.8333ZM60.1831 41.1042C55.9431 41.1042 52.454 44.5933 52.454 48.8333C52.454 53.0733 55.9431 56.5625 60.1831 56.5625H80.0581V41.1042H60.1831ZM62.4799 53.25C60.0507 53.25 58.019 51.2625 58.019 48.8333C58.019 46.4042 60.0065 44.4167 62.4357 44.4167H62.4799C64.909 44.4167 66.8966 46.4042 66.8966 48.8333C66.8966 51.2625 64.909 53.25 62.4799 53.25ZM53.5581 0.25H12.704C9.65647 0.25 7.18314 2.72333 7.18314 5.77083C7.18314 8.81833 9.65647 11.2917 12.704 11.2917H66.6755C66.013 3.91583 61.6406 0.25 53.5581 0.25Z" fill="#063776"/>
</svg>
